<svg id="katman_1" data-name="katman 1" xmlns="http://www.w3.org/2000/svg" viewBox="0 0 1080 1080"><defs><style>.cls-1{fill:#003da0;}.cls-2{fill:#1e9956;}.cls-3{fill:#23428f;}</style></defs><path class="cls-1" d="M359.2,497.2a30.23,30.23,0,0,0,4.3.27,13,13,0,0,0,6.43-1.39,8.85,8.85,0,0,0,3.61-3.62,10.17,10.17,0,0,0,1.15-4.76,8.32,8.32,0,0,0-.81-3.86,7.88,7.88,0,0,0-2.12-2.62,13.21,13.21,0,0,0-3-1.78c-1.14-.49-2.31-.93-3.52-1.32-1.37-.42-2.57-.85-3.62-1.29a6.57,6.57,0,0,1-2.42-1.67,4,4,0,0,1-.85-2.71,3.9,3.9,0,0,1,.68-2.25,4.43,4.43,0,0,1,2-1.51,8.48,8.48,0,0,1,3.37-.49,12.55,12.55,0,0,1,3.27.49,14,14,0,0,1,2.71,1.12c.84.46,1.66.95,2.47,1.47V466c-1-.49-1.94-.9-2.81-1.24a12.79,12.79,0,0,0-2.73-.76,21,21,0,0,0-3.4-.25,14.38,14.38,0,0,0-5.11.81,9.28,9.28,0,0,0-3.42,2.15,9.49,9.49,0,0,0-1.83,10.14,7.12,7.12,0,0,0,2,2.56,11.41,11.41,0,0,0,2.73,1.67c1,.44,2,.85,3.08,1.24,1.37.49,2.66,1,3.86,1.47a9.18,9.18,0,0,1,2.91,1.78,3.65,3.65,0,0,1,1.1,2.76,4.26,4.26,0,0,1-1.49,3.45,7,7,0,0,1-4.52,1.24,17.12,17.12,0,0,1-5.84-1,16.36,16.36,0,0,1-4.62-2.5v5.38c1.08.55,2.12,1,3.13,1.42A15.52,15.52,0,0,0,359.2,497.2Z"/><path class="cls-1" d="M402.28,496.93H408l-12.36-32.59h-5.72l-12.71,32.59h5.38l3.2-8.84h13.32Zm-14.95-13.24,5.05-14,5.08,14Z"/><polygon class="cls-1" points="418.32 486.34 421.31 483.04 432.25 496.93 439.29 496.93 425.02 478.95 438.26 464.34 431.42 464.34 418.32 480.15 418.32 464.34 412.9 464.34 412.9 496.93 418.32 496.93 418.32 486.34"/><path class="cls-1" d="M449.76,488.09h13.33l3.22,8.84H472l-12.37-32.59H453.9l-12.71,32.59h5.38Zm6.65-18.38,5.08,14H451.35Z"/><path class="cls-1" d="M482.22,484.62h6.89l7.62,12.31h6.7L494.7,483.7a8.58,8.58,0,0,0,3.11-1.33,8.85,8.85,0,0,0,3-3.52,10.78,10.78,0,0,0,1-4.69c0-3.25-.91-5.71-2.72-7.35s-4.4-2.47-7.79-2.47H476.84v32.59h5.38Zm0-15.73h8.45c2,0,3.45.48,4.28,1.46a6.23,6.23,0,0,1,1.24,4.15,5.44,5.44,0,0,1-1.58,4.3,7,7,0,0,1-4.82,1.42h-7.57Z"/><polygon class="cls-1" points="517.26 496.93 522.64 496.93 522.64 482.37 534.46 464.34 528.65 464.34 520.28 477.89 511.59 464.34 505 464.34 517.26 482.32 517.26 496.93"/><path class="cls-1" d="M536.43,496.93l3.19-8.84H553l3.22,8.84h5.67l-12.37-32.59h-5.71l-12.71,32.59Zm9.84-27.22,5.08,14H541.21Z"/><path class="cls-1" d="M375.15,538.34q0,3.76-1.69,5.57a6.1,6.1,0,0,1-4.71,1.81q-3.33,0-4.84-1.81t-1.51-5.57V518.26h-8.26v20.42q0,6.8,3.74,10t11.26,3.2a16.54,16.54,0,0,0,7-1.42,10.76,10.76,0,0,0,4.76-4.32,14.38,14.38,0,0,0,1.74-7.46V518.26h-7.53Z"/><polygon class="cls-1" points="404.26 530.63 396.9 518.26 387.17 518.26 399.53 536.78 399.53 550.85 407.45 550.85 407.45 536.89 418.83 518.26 410.97 518.26 404.26 530.63"/><path class="cls-1" d="M427.54,549.82a19.29,19.29,0,0,0,8.38,1.71,25,25,0,0,0,6.72-.92A30.53,30.53,0,0,0,449,548V532.67h-13.3v6.16h5.38v5.77a7,7,0,0,1-2,.61,17.32,17.32,0,0,1-2.47.17,9.16,9.16,0,0,1-4.44-1,6.79,6.79,0,0,1-3-3.39,16.19,16.19,0,0,1-1-6.43,16.5,16.5,0,0,1,1-6.47,6.34,6.34,0,0,1,3-3.35,10.71,10.71,0,0,1,4.77-1,14.89,14.89,0,0,1,5.2.93,49.12,49.12,0,0,1,5.45,2.44v-7.18a31.94,31.94,0,0,0-5.62-1.76,28.58,28.58,0,0,0-6-.64,18.6,18.6,0,0,0-8.38,1.79,12.46,12.46,0,0,0-5.57,5.55,25,25,0,0,0,0,19.52A12.06,12.06,0,0,0,427.54,549.82Z"/><path class="cls-1" d="M482,546.14a14.38,14.38,0,0,0,1.74-7.46V518.26h-7.53v20.08q0,3.76-1.68,5.57a6.13,6.13,0,0,1-4.72,1.81c-2.21,0-3.83-.6-4.84-1.81s-1.51-3.06-1.51-5.57V518.26h-8.26v20.42q0,6.8,3.74,10t11.26,3.2a16.54,16.54,0,0,0,7-1.42A10.76,10.76,0,0,0,482,546.14Z"/><polygon class="cls-1" points="490.72 518.26 490.72 550.85 512.8 550.85 512.8 544.64 498.63 544.64 498.63 518.26 490.72 518.26"/><path class="cls-1" d="M527.31,518.26,515,550.85h7.48l2.34-7H537l2.38,7h8.12L536,518.26ZM526.76,538l4.1-12.31L535,538Z"/><polygon class="cls-1" points="560.15 528.85 569.48 541.57 579.06 528.84 579.06 550.85 586.98 550.85 586.98 518.26 579.11 518.26 569.76 530.96 560.64 518.26 552.58 518.26 552.58 550.85 560.15 550.85 560.15 528.85"/><path class="cls-1" d="M603.4,518.26l-12.32,32.59h7.48l2.34-7h12.18l2.39,7h8.11L612,518.26ZM602.84,538l4.1-12.31L611.11,538Z"/><polygon class="cls-1" points="636.57 518.26 628.66 518.26 628.66 550.85 650.75 550.85 650.75 544.64 636.57 544.64 636.57 518.26"/><rect class="cls-1" x="655.52" y="518.26" width="7.92" height="32.59"/><path class="cls-1" d="M709.14,533.92a9.89,9.89,0,0,0-1.38-.54l.38-.19a8.41,8.41,0,0,0,2.59-2.28,5.84,5.84,0,0,0,1.07-3.61,8.64,8.64,0,0,0-1.46-5.25,8.36,8.36,0,0,0-4.08-2.89,19.09,19.09,0,0,0-6.18-.9H686.25v32.59H701.4a16.83,16.83,0,0,0,6.06-1.05,9.68,9.68,0,0,0,4.37-3.23,9,9,0,0,0,1.64-5.59,7.8,7.8,0,0,0-1.15-4.28A7.91,7.91,0,0,0,709.14,533.92Zm-15-9.5H700a4.51,4.51,0,0,1,2.64.75,4,4,0,0,1,.61,4.57,2.7,2.7,0,0,1-1.2,1,3.92,3.92,0,0,1-1.56.32h-6.36Zm10.56,18.69a3.47,3.47,0,0,1-1.66,1.27,6.81,6.81,0,0,1-2.25.36h-6.65v-7.86h6.5a7.66,7.66,0,0,1,1.76.19,4.72,4.72,0,0,1,1.49.61,3,3,0,0,1,1.05,1.15,3.94,3.94,0,0,1,.39,1.86A4.18,4.18,0,0,1,704.72,543.11Z"/><rect class="cls-1" x="718.68" y="518.26" width="7.92" height="32.59"/><rect class="cls-1" x="719.65" y="511.91" width="5.96" height="4.89"/><polygon class="cls-1" points="741.45 518.26 733.53 518.26 733.53 550.85 755.62 550.85 755.62 544.64 741.45 544.64 741.45 518.26"/><rect class="cls-1" x="760.65" y="518.26" width="7.92" height="32.59"/><rect class="cls-1" x="761.63" y="511.91" width="5.96" height="4.89"/><polygon class="cls-1" points="791.71 530.96 782.59 518.26 774.52 518.26 774.52 550.85 782.1 550.85 782.1 528.85 791.43 541.57 801.01 528.84 801.01 550.85 808.92 550.85 808.92 518.26 801.06 518.26 791.71 530.96"/><polygon class="cls-1" points="823.08 518.26 815.16 518.26 815.16 550.85 837.25 550.85 837.25 544.64 823.08 544.64 823.08 518.26"/><polygon class="cls-1" points="841.13 550.85 863.46 550.85 863.46 544.74 849.04 544.74 849.04 537.61 861.55 537.61 861.55 531.45 849.04 531.45 849.04 524.37 863.46 524.37 863.46 518.26 841.13 518.26 841.13 550.85"/><path class="cls-1" d="M891.09,538.09a8.24,8.24,0,0,0,3.2-1.68,9.66,9.66,0,0,0,2.59-3.57,10.82,10.82,0,0,0,.88-4.22c0-3.49-1-6.09-3.13-7.8s-5-2.56-8.65-2.56H870.1v32.59H878V539.61h4.88l6.45,11.24h10.07Zm-3.1-5.42a4.75,4.75,0,0,1-3.33,1.13H878v-9.43h7a4.07,4.07,0,0,1,3.11,1.17,6.06,6.06,0,0,1-.12,7.13Z"/><path class="cls-1" d="M369.13,606.08q-7.54,0-11.29-3.21t-3.74-10V572.39h8.27v20.12q0,3.78,1.52,5.58t4.85,1.82a6.12,6.12,0,0,0,4.72-1.82q1.69-1.8,1.69-5.58V572.39h7.54v20.47a14.48,14.48,0,0,1-1.73,7.46,10.73,10.73,0,0,1-4.78,4.34A16.55,16.55,0,0,1,369.13,606.08Zm-8.52-35.8v-4.9h6.27v4.9Zm9,0v-4.9h6.32v4.9Z"/><path class="cls-1" d="M389.16,605.05V572.39h6.76L412.71,595l-2.35,4.9V572.39h7.3v32.66h-6l-17.09-22.33,1.86-3.58v25.91Z"/><path class="cls-1" d="M424.12,605.05V572.39h7.93v32.66Zm.73-34.13V566h6v4.9Z"/><path class="cls-1" d="M447.87,605.05l-12.19-32.66h9.15l9.26,27.76h-2.6l9.21-27.71,8.42-.05-12.78,32.66Z"/><path class="cls-1" d="M472.74,605.05V572.39h22.38v6.12H480.68v7.1h12.53v6.17H480.68v7.15h14.44v6.12Z"/><path class="cls-1" d="M501.29,605.05V572.39h15.92c3.68,0,6.57.85,8.66,2.57s3.14,4.32,3.14,7.81a10.83,10.83,0,0,1-.88,4.23,9.81,9.81,0,0,1-2.6,3.58,8.6,8.6,0,0,1-4.31,1.93l-.49-2.69,9.94,15.23H520.58l-8.17-14.25,3.52,3h-6.71v11.26ZM509.22,588h6.66a4.71,4.71,0,0,0,3.33-1.13,6.07,6.07,0,0,0,.13-7.15,4.09,4.09,0,0,0-3.11-1.17h-7Z"/><path class="cls-1" d="M546.49,605.73a38.27,38.27,0,0,1-4.51-.24,24.48,24.48,0,0,1-3.72-.74,20.37,20.37,0,0,1-3.33-1.27v-7.54a15.94,15.94,0,0,0,5.09,2.74,17.36,17.36,0,0,0,5.39.93,5.9,5.9,0,0,0,3.45-.85,3,3,0,0,0,1.2-2.62A2.48,2.48,0,0,0,549,594a10.52,10.52,0,0,0-2.91-1.42l-4.07-1.4a18.33,18.33,0,0,1-2.79-1.13,9.61,9.61,0,0,1-2.45-1.73,7.87,7.87,0,0,1-1.71-2.57,9.78,9.78,0,0,1-.64-3.73,10.43,10.43,0,0,1,.74-3.86,9.37,9.37,0,0,1,2.27-3.33,11,11,0,0,1,4-2.33,16.74,16.74,0,0,1,5.63-.86,23.22,23.22,0,0,1,3.55.25,18.8,18.8,0,0,1,3,.71,21.11,21.11,0,0,1,2.89,1.2v7.64a18.62,18.62,0,0,0-2.52-1.74,17.19,17.19,0,0,0-2.92-1.35,10.54,10.54,0,0,0-3.18-.59,8.85,8.85,0,0,0-2.69.3,3.9,3.9,0,0,0-1.91,1.1,2.77,2.77,0,0,0-.69,1.93,2.8,2.8,0,0,0,.84,2.16,6.49,6.49,0,0,0,2.3,1.3c1,.34,2.07.71,3.28,1.1a34.37,34.37,0,0,1,3.69,1.29,11.51,11.51,0,0,1,3,1.79,7.2,7.2,0,0,1,2,2.65,9.48,9.48,0,0,1,.68,3.77,10.74,10.74,0,0,1-1.37,5.36,9.75,9.75,0,0,1-4,3.82A13.29,13.29,0,0,1,546.49,605.73Z"/><path class="cls-1" d="M563.28,605.05V572.39h7.94v32.66Zm.74-34.13V566h6v4.9Z"/><path class="cls-1" d="M584.53,605.05V578.51h-9.15v-6.12h26.39v6.12h-9.3v26.54Z"/><path class="cls-1" d="M605.93,605.05V572.39h22.38v6.12H613.87v7.1H626.4v6.17H613.87v7.15h14.44v6.12Z"/><path class="cls-1" d="M645.45,605.73a38.27,38.27,0,0,1-4.51-.24,24.48,24.48,0,0,1-3.72-.74,20.37,20.37,0,0,1-3.33-1.27v-7.54a15.94,15.94,0,0,0,5.09,2.74,17.36,17.36,0,0,0,5.39.93,5.9,5.9,0,0,0,3.45-.85,3,3,0,0,0,1.2-2.62,2.48,2.48,0,0,0-1.1-2.13,10.38,10.38,0,0,0-2.91-1.42l-4.07-1.4a18.33,18.33,0,0,1-2.79-1.13,9.61,9.61,0,0,1-2.45-1.73,7.87,7.87,0,0,1-1.71-2.57,9.78,9.78,0,0,1-.64-3.73,10.43,10.43,0,0,1,.74-3.86,9.27,9.27,0,0,1,2.28-3.33,10.87,10.87,0,0,1,3.94-2.33,16.74,16.74,0,0,1,5.63-.86,23.22,23.22,0,0,1,3.55.25,18.8,18.8,0,0,1,3,.71,21.11,21.11,0,0,1,2.89,1.2v7.64a18.62,18.62,0,0,0-2.52-1.74,17.19,17.19,0,0,0-2.92-1.35,10.54,10.54,0,0,0-3.18-.59,8.85,8.85,0,0,0-2.69.3,3.9,3.9,0,0,0-1.91,1.1,2.77,2.77,0,0,0-.69,1.93,2.8,2.8,0,0,0,.84,2.16,6.49,6.49,0,0,0,2.3,1.3c1,.34,2.07.71,3.28,1.1a34.37,34.37,0,0,1,3.69,1.29,11.51,11.51,0,0,1,3,1.79,7.2,7.2,0,0,1,2,2.65,9.48,9.48,0,0,1,.68,3.77,10.74,10.74,0,0,1-1.37,5.36,9.75,9.75,0,0,1-4,3.82A13.29,13.29,0,0,1,645.45,605.73Z"/><path class="cls-1" d="M662.24,605.05V572.39h7.94v32.66Zm.74-34.13V566h6v4.9Z"/><path class="cls-2" d="M309.34,447.58h0l-.1,0-.11,0-.67.26h0l-.09,0-1.78.69-1,.37-1.88.74-.9.36-1.88.78-.89.37-1.87.8-.88.38-1.92.86-.8.36-2,.93-.72.34-2.67,1.31h0c-.89.45-1.78.9-2.66,1.37a158,158,0,0,0-29.72,20,157.91,157.91,0,0,0-29.71-20c-.89-.47-1.78-.92-2.67-1.37h0l-2.67-1.31-.73-.34-2-.93-.81-.36-1.92-.86-.88-.38-1.87-.8-.88-.37-1.88-.78-.9-.36-1.88-.74-1-.37-1.79-.69-.08,0h0l-.67-.26-.12,0-.09,0h0q-2.53,1-5.48,2.3l4.21,1.41a170.92,170.92,0,0,1,24.64,10.3,122.87,122.87,0,0,1,24.74,16.71c1.47,1.29,2.9,2.6,4.29,4l.09.08h0l.09-.08c1.39-1.37,2.83-2.68,4.29-4A123.16,123.16,0,0,1,286,461.59a171.51,171.51,0,0,1,24.65-10.3l4.2-1.41C312.86,449,311,448.25,309.34,447.58Z"/><path class="cls-1" d="M330.23,465.69c-.91.44-1.82.87-2.72,1.33s-1.85,1-2.76,1.49l-.57.33c-.47.26-.94.54-1.4.82l-1.41.85a66.73,66.73,0,0,0-14.49,11.89,50.81,50.81,0,0,0-11.31,20.12,66.16,66.16,0,0,0-2.25,23,117.93,117.93,0,0,0,3.54,21.78c1.79,7,3.71,14,5.49,21,1.83,7.19,3.26,14.43,3,21.91a40,40,0,0,1-5.92,19.7c-3.84,6.28-9,11.38-14.56,16a82.76,82.76,0,0,0,12-5.43l.05,0c1.12-.62,2.18-1.25,3.21-1.88l.68-.43a72.35,72.35,0,0,0,14.1-11.5,38,38,0,0,0,5-7.15c3.84-7.21,4.52-15,3.91-22.93a126.78,126.78,0,0,0-3.66-20.26c-2.8-11.45-6-22.81-7.52-34.53a82.29,82.29,0,0,1-.36-20.86,52.61,52.61,0,0,1,17.59-33.48c1.05-.95,2.12-1.88,3.24-2.88A27.74,27.74,0,0,0,330.23,465.69Z"/><path class="cls-2" d="M289.35,618.23a37.58,37.58,0,0,0,5-7.15c3.84-7.21,4.52-15,3.9-22.93a126.76,126.76,0,0,0-3.65-20.26c-2.8-11.45-6-22.81-7.52-34.53a81.83,81.83,0,0,1-.36-20.86A52.56,52.56,0,0,1,304.29,479c1-.95,2.11-1.88,3.24-2.88a28.77,28.77,0,0,0-2.88,1.13c-.9.44-1.82.87-2.71,1.33s-1.85,1-2.76,1.49l-.57.33c-.47.26-.94.54-1.4.82s-1,.57-1.41.85A66.73,66.73,0,0,0,281.31,494,51,51,0,0,0,270,514.1a66.4,66.4,0,0,0-2.24,23,117.93,117.93,0,0,0,3.54,21.78c1.79,7,3.71,14,5.49,21,1.82,7.19,3.26,14.43,3,21.91a39.86,39.86,0,0,1-5.92,19.7c-3.83,6.28-9,11.37-14.56,16a81.38,81.38,0,0,0,12-5.42l0,0c1.12-.62,2.19-1.25,3.21-1.88l.69-.43A71.92,71.92,0,0,0,289.35,618.23Z"/><path class="cls-1" d="M214.27,609.88a40,40,0,0,1-5.92-19.7c-.27-7.48,1.16-14.72,3-21.91,1.79-7,3.7-14,5.49-21a117.11,117.11,0,0,0,3.55-21.78,66.4,66.4,0,0,0-2.25-23A50.83,50.83,0,0,0,206.8,482.4a66.91,66.91,0,0,0-14.48-11.89l-1.41-.85c-.47-.28-.94-.56-1.41-.82l-.57-.33c-.91-.51-1.83-1-2.76-1.49s-1.8-.89-2.71-1.33a28.77,28.77,0,0,0-2.88-1.13c1.13,1,2.2,1.93,3.24,2.88a52.56,52.56,0,0,1,17.59,33.48,81.83,81.83,0,0,1-.36,20.86c-1.54,11.72-4.72,23.08-7.51,34.53a125.68,125.68,0,0,0-3.66,20.26c-.62,8,.06,15.72,3.9,22.93a37.58,37.58,0,0,0,5,7.15,72.22,72.22,0,0,0,14.09,11.5l.69.43c1,.63,2.09,1.26,3.21,1.88l.05,0a82.28,82.28,0,0,0,12,5.43C223.23,621.26,218.1,616.16,214.27,609.88Z"/><path class="cls-2" d="M239.84,621.46a40,40,0,0,1-5.92-19.7c-.27-7.48,1.16-14.72,3-21.91,1.78-7,3.69-14,5.48-21a117.11,117.11,0,0,0,3.55-21.78,66.4,66.4,0,0,0-2.25-23A50.83,50.83,0,0,0,232.37,494a66.67,66.67,0,0,0-14.48-11.89l-1.41-.85c-.47-.28-.93-.56-1.41-.82l-.57-.33c-.91-.51-1.83-1-2.75-1.49s-1.81-.89-2.72-1.33a27.85,27.85,0,0,0-2.88-1.13c1.13,1,2.2,1.93,3.25,2.88A52.66,52.66,0,0,1,227,512.5a81.83,81.83,0,0,1-.37,20.86c-1.53,11.72-4.71,23.08-7.51,34.53a125.68,125.68,0,0,0-3.66,20.26c-.61,8,.06,15.72,3.9,22.93a38,38,0,0,0,5,7.15,72.35,72.35,0,0,0,14.1,11.5l.68.43c1,.63,2.09,1.26,3.21,1.88l.05,0a81.24,81.24,0,0,0,12,5.42C248.8,632.83,243.67,627.74,239.84,621.46Z"/><path class="cls-1" d="M293.71,471.08a150.9,150.9,0,0,1,34.4-11.23c1.58-.33,3.19-.64,5-1-2-1.08-3.93-2.09-5.77-3-1.74.41-3.49.8-5.23,1.23a157,157,0,0,0-32.81,11.69,118.63,118.63,0,0,0-18.59,11.38c-4.88,3.65-13.84,11.5-13.84,11.5s-8.95-7.86-13.84-11.5a119,119,0,0,0-18.58-11.38,157.24,157.24,0,0,0-32.82-11.69c-1.74-.43-3.48-.82-5.23-1.23-1.84.94-3.77,2-5.77,3,1.78.34,3.4.65,5,1A151.14,151.14,0,0,1,220,471.08a133.44,133.44,0,0,1,30.83,20.43c1.88,1.65,4.11,3.67,5.94,5.48l.09.09.09-.09c1.83-1.81,4.07-3.83,5.94-5.48A133.5,133.5,0,0,1,293.71,471.08Z"/><path class="cls-3" d="M205.22,447.76l-.66-.26h0l.67.26Z"/><path class="cls-1" d="M244,460.32c3.81,2.59,8.79,6.29,12.71,9.41l.09.07.09-.07c3.92-3.12,8.91-6.82,12.71-9.41a176.08,176.08,0,0,1,23.73-13.54l5.87-2.76c-.41-.13-5.21-1.32-6.13-1.5H293l-.29.11h0l-1.71.77-1.69.77-1.65.8c-.57.28-1.15.55-1.72.84s-1.17.6-1.76.91-1.05.53-1.57.81c-1.1.58-2.19,1.18-3.28,1.8-7.53,4.25-20.72,14.47-22.32,15.71l-.12.09,0,0,0,0-.12-.09c-1.6-1.24-14.79-11.46-22.32-15.71-1.08-.62-2.18-1.22-3.28-1.8-.52-.28-1.05-.54-1.57-.81s-1.17-.62-1.76-.91-1.15-.56-1.72-.84l-1.64-.8-1.7-.77-1.7-.77h-.05l-.29-.11h-.08c-.92.18-5.72,1.37-6.13,1.5l5.87,2.76A176.08,176.08,0,0,1,244,460.32Z"/></svg>